solid OpenSCAD_Model
  facet normal -1 0 0
    outer loop
      vertex 0 0 0
      vertex 0 0 5
      vertex 0 13 0
    endloop
  endfacet
  facet normal -1 0 0
    outer loop
      vertex 0 4 4
      vertex 0 0 5
      vertex 0 4 5
    endloop
  endfacet
  facet normal -1 0 0
    outer loop
      vertex 0 13 0
      vertex 0 0 5
      vertex 0 4 4
    endloop
  endfacet
  facet normal -1 0 0
    outer loop
      vertex 0 13 2.5
      vertex 0 14 4
      vertex 0 59 5
    endloop
  endfacet
  facet normal -1 0 0
    outer loop
      vertex 0 14 4
      vertex 0 14 5
      vertex 0 59 5
    endloop
  endfacet
  facet normal -1 0 0
    outer loop
      vertex 0 45 0
      vertex 0 59 5
      vertex 0 59 0
    endloop
  endfacet
  facet normal -1 0 0
    outer loop
      vertex 0 45 2.5
      vertex 0 59 5
      vertex 0 45 0
    endloop
  endfacet
  facet normal -1 0 0
    outer loop
      vertex 0 13 2.5
      vertex 0 59 5
      vertex 0 45 2.5
    endloop
  endfacet
  facet normal -1 0 0
    outer loop
      vertex 0 13 2.5
      vertex 0 13 0
      vertex 0 4 4
    endloop
  endfacet
  facet normal -1 0 0
    outer loop
      vertex 0 14 4
      vertex 0 13 2.5
      vertex 0 4 4
    endloop
  endfacet
  facet normal 0 -1 0
    outer loop
      vertex 0 0 5
      vertex 0 0 0
      vertex 88 0 0
    endloop
  endfacet
  facet normal 0 -1 0
    outer loop
      vertex 38 0 4
      vertex 0 0 5
      vertex 88 0 0
    endloop
  endfacet
  facet normal 0 -1 0
    outer loop
      vertex 88 0 5
      vertex 53 0 5
      vertex 88 0 0
    endloop
  endfacet
  facet normal 0 -1 0
    outer loop
      vertex 53 0 5
      vertex 53 0 4
      vertex 88 0 0
    endloop
  endfacet
  facet normal 0 -1 0
    outer loop
      vertex 53 0 4
      vertex 38 0 4
      vertex 88 0 0
    endloop
  endfacet
  facet normal 0 -1 0
    outer loop
      vertex 38 0 4
      vertex 38 0 5
      vertex 0 0 5
    endloop
  endfacet
  facet normal 0 0 -1
    outer loop
      vertex 80.5 23 0
      vertex 88 0 0
      vertex 83 13 0
    endloop
  endfacet
  facet normal 0 0 -1
    outer loop
      vertex 0 0 0
      vertex 0 13 0
      vertex 7.5 7.5 0
    endloop
  endfacet
  facet normal 0 0 -1
    outer loop
      vertex 14 4 0
      vertex 7.5 7.5 0
      vertex 14 7.5 0
    endloop
  endfacet
  facet normal 0 0 -1
    outer loop
      vertex 0 0 0
      vertex 7.5 7.5 0
      vertex 14 4 0
    endloop
  endfacet
  facet normal 0 0 -1
    outer loop
      vertex 0 0 0
      vertex 14 4 0
      vertex 88 0 0
    endloop
  endfacet
  facet normal 0 0 -1
    outer loop
      vertex 20 7.5 0
      vertex 88 0 0
      vertex 20 4 0
    endloop
  endfacet
  facet normal 0 0 -1
    outer loop
      vertex 14 4 0
      vertex 20 4 0
      vertex 88 0 0
    endloop
  endfacet
  facet normal 0 0 -1
    outer loop
      vertex 63 7.5 0
      vertex 63 3 0
      vertex 20 7.5 0
    endloop
  endfacet
  facet normal 0 0 -1
    outer loop
      vertex 83 3 0
      vertex 88 0 0
      vertex 63 3 0
    endloop
  endfacet
  facet normal 0 0 -1
    outer loop
      vertex 20 7.5 0
      vertex 63 3 0
      vertex 88 0 0
    endloop
  endfacet
  facet normal 0 0 -1
    outer loop
      vertex 36 51.5 0
      vertex 42 55 0
      vertex 42 51.5 0
    endloop
  endfacet
  facet normal 0 0 -1
    outer loop
      vertex 88 0 0
      vertex 83 3 0
      vertex 83 13 0
    endloop
  endfacet
  facet normal 0 0 -1
    outer loop
      vertex 80.5 13 0
      vertex 80.5 23 0
      vertex 83 13 0
    endloop
  endfacet
  facet normal 0 0 -1
    outer loop
      vertex 88 0 0
      vertex 80.5 23 0
      vertex 87 23 0
    endloop
  endfacet
  facet normal 0 0 -1
    outer loop
      vertex 88 0 0
      vertex 87 23 0
      vertex 87 43 0
    endloop
  endfacet
  facet normal 0 0 -1
    outer loop
      vertex 87 43 0
      vertex 80.5 43 0
      vertex 80.5 51.5 0
    endloop
  endfacet
  facet normal 0 0 -1
    outer loop
      vertex 87 43 0
      vertex 88 59 0
      vertex 88 0 0
    endloop
  endfacet
  facet normal 0 0 -1
    outer loop
      vertex 80.5 51.5 0
      vertex 62 51.5 0
      vertex 62 55 0
    endloop
  endfacet
  facet normal 0 0 -1
    outer loop
      vertex 80.5 51.5 0
      vertex 88 59 0
      vertex 87 43 0
    endloop
  endfacet
  facet normal 0 0 -1
    outer loop
      vertex 0 45 0
      vertex 2 51 0
      vertex 7.5 51 0
    endloop
  endfacet
  facet normal 0 0 -1
    outer loop
      vertex 62 55 0
      vertex 88 59 0
      vertex 80.5 51.5 0
    endloop
  endfacet
  facet normal 0 0 -1
    outer loop
      vertex 0 45 0
      vertex 2 57 0
      vertex 2 51 0
    endloop
  endfacet
  facet normal 0 0 -1
    outer loop
      vertex 42 55 0
      vertex 36 51.5 0
      vertex 36 57 0
    endloop
  endfacet
  facet normal 0 0 -1
    outer loop
      vertex 42 55 0
      vertex 36 57 0
      vertex 62 55 0
    endloop
  endfacet
  facet normal 0 0 -1
    outer loop
      vertex 2 57 0
      vertex 0 45 0
      vertex 0 59 0
    endloop
  endfacet
  facet normal 0 0 -1
    outer loop
      vertex 2 57 0
      vertex 0 59 0
      vertex 36 57 0
    endloop
  endfacet
  facet normal 0 0 -1
    outer loop
      vertex 36 57 0
      vertex 0 59 0
      vertex 88 59 0
    endloop
  endfacet
  facet normal 0 0 -1
    outer loop
      vertex 36 57 0
      vertex 88 59 0
      vertex 62 55 0
    endloop
  endfacet
  facet normal 0 0 -1
    outer loop
      vertex 7.5 7.5 0
      vertex 0 13 0
      vertex 7.5 13 0
    endloop
  endfacet
  facet normal 0 0 -1
    outer loop
      vertex 0 45 0
      vertex 7.5 51 0
      vertex 7.5 45 0
    endloop
  endfacet
  facet normal 0 1 0
    outer loop
      vertex 7.5 13 2.5
      vertex 7.5 13 0
      vertex 0 13 2.5
    endloop
  endfacet
  facet normal 0 1 0
    outer loop
      vertex 0 13 2.5
      vertex 7.5 13 0
      vertex 0 13 0
    endloop
  endfacet
  facet normal 0 0 -1
    outer loop
      vertex 7.5 45 2.5
      vertex 7.5 13 2.5
      vertex 0 45 2.5
    endloop
  endfacet
  facet normal 0 0 -1
    outer loop
      vertex 0 45 2.5
      vertex 7.5 13 2.5
      vertex 0 13 2.5
    endloop
  endfacet
  facet normal 0 -1 0
    outer loop
      vertex 7.5 45 0
      vertex 7.5 45 2.5
      vertex 0 45 2.5
    endloop
  endfacet
  facet normal 0 -1 0
    outer loop
      vertex 0 45 0
      vertex 7.5 45 0
      vertex 0 45 2.5
    endloop
  endfacet
  facet normal 0 1 0
    outer loop
      vertex 0 59 0
      vertex 0 59 5
      vertex 88 59 0
    endloop
  endfacet
  facet normal 0 1 0
    outer loop
      vertex 88 59 0
      vertex 0 59 5
      vertex 88 59 5
    endloop
  endfacet
  facet normal 0 0 1
    outer loop
      vertex 0 59 5
      vertex 0 14 5
      vertex 0.75 14 5
    endloop
  endfacet
  facet normal 0 0 1
    outer loop
      vertex 87.25 58.25 5
      vertex 0 59 5
      vertex 0.75 58.25 5
    endloop
  endfacet
  facet normal 0 0 1
    outer loop
      vertex 0.75 58.25 5
      vertex 0 59 5
      vertex 0.75 14 5
    endloop
  endfacet
  facet normal 0 0 1
    outer loop
      vertex 88 59 5
      vertex 0 59 5
      vertex 87.25 58.25 5
    endloop
  endfacet
  facet normal 0 0 1
    outer loop
      vertex 88 40 5
      vertex 87.25 58.25 5
      vertex 87.25 40 5
    endloop
  endfacet
  facet normal 0 0 1
    outer loop
      vertex 88 59 5
      vertex 87.25 58.25 5
      vertex 88 40 5
    endloop
  endfacet
  facet normal 0 -1 0
    outer loop
      vertex 0.75 14 4
      vertex 0.75 14 5
      vertex 0 14 5
    endloop
  endfacet
  facet normal 0 -1 0
    outer loop
      vertex 0 14 4
      vertex 0.75 14 4
      vertex 0 14 5
    endloop
  endfacet
  facet normal 0 0 1
    outer loop
      vertex 0.75 4 4
      vertex 0.75 14 4
      vertex 0 14 4
    endloop
  endfacet
  facet normal 0 0 1
    outer loop
      vertex 0 4 4
      vertex 0.75 4 4
      vertex 0 14 4
    endloop
  endfacet
  facet normal 0 1 0
    outer loop
      vertex 0.75 4 5
      vertex 0.75 4 4
      vertex 0 4 5
    endloop
  endfacet
  facet normal 0 1 0
    outer loop
      vertex 0 4 5
      vertex 0.75 4 4
      vertex 0 4 4
    endloop
  endfacet
  facet normal 0 0 1
    outer loop
      vertex 0.75 0.75 5
      vertex 0 0 5
      vertex 38 0 5
    endloop
  endfacet
  facet normal 0 0 1
    outer loop
      vertex 0.75 0.75 5
      vertex 0.75 4 5
      vertex 0 4 5
    endloop
  endfacet
  facet normal 0 0 1
    outer loop
      vertex 0 4 5
      vertex 0 0 5
      vertex 0.75 0.75 5
    endloop
  endfacet
  facet normal 0 0 1
    outer loop
      vertex 38 0.75 5
      vertex 0.75 0.75 5
      vertex 38 0 5
    endloop
  endfacet
  facet normal 1 0 0
    outer loop
      vertex 38 0.75 4
      vertex 38 0.75 5
      vertex 38 0 5
    endloop
  endfacet
  facet normal 1 0 0
    outer loop
      vertex 38 0 4
      vertex 38 0.75 4
      vertex 38 0 5
    endloop
  endfacet
  facet normal 0 0 1
    outer loop
      vertex 53 0 4
      vertex 53 0.75 4
      vertex 38 0.75 4
    endloop
  endfacet
  facet normal 0 0 1
    outer loop
      vertex 38 0 4
      vertex 53 0 4
      vertex 38 0.75 4
    endloop
  endfacet
  facet normal -1 0 0
    outer loop
      vertex 53 0.75 5
      vertex 53 0.75 4
      vertex 53 0 5
    endloop
  endfacet
  facet normal -1 0 0
    outer loop
      vertex 53 0 5
      vertex 53 0.75 4
      vertex 53 0 4
    endloop
  endfacet
  facet normal 0 0 1
    outer loop
      vertex 53 0.75 5
      vertex 53 0 5
      vertex 88 0 5
    endloop
  endfacet
  facet normal 0 0 1
    outer loop
      vertex 87.25 0.75 5
      vertex 53 0.75 5
      vertex 88 0 5
    endloop
  endfacet
  facet normal 0 0 1
    outer loop
      vertex 88 3 5
      vertex 87.25 0.75 5
      vertex 88 0 5
    endloop
  endfacet
  facet normal 0 0 1
    outer loop
      vertex 87.25 3 5
      vertex 87.25 0.75 5
      vertex 88 3 5
    endloop
  endfacet
  facet normal 1 0 0
    outer loop
      vertex 88 25 2.5
      vertex 88 0 0
      vertex 88 59 0
    endloop
  endfacet
  facet normal 1 0 0
    outer loop
      vertex 88 3 2.5
      vertex 88 3 5
      vertex 88 0 5
    endloop
  endfacet
  facet normal 1 0 0
    outer loop
      vertex 88 59 5
      vertex 88 40 5
      vertex 88 59 0
    endloop
  endfacet
  facet normal 1 0 0
    outer loop
      vertex 88 40 5
      vertex 88 40 2.5
      vertex 88 59 0
    endloop
  endfacet
  facet normal 1 0 0
    outer loop
      vertex 88 20 5
      vertex 88 20 2.5
      vertex 88 25 2.5
    endloop
  endfacet
  facet normal 1 0 0
    outer loop
      vertex 88 20 2.5
      vertex 88 0 0
      vertex 88 25 2.5
    endloop
  endfacet
  facet normal 1 0 0
    outer loop
      vertex 88 3 2.5
      vertex 88 0 0
      vertex 88 20 2.5
    endloop
  endfacet
  facet normal 1 0 0
    outer loop
      vertex 88 0 5
      vertex 88 0 0
      vertex 88 3 2.5
    endloop
  endfacet
  facet normal 1 0 0
    outer loop
      vertex 88 40 2.5
      vertex 88 25 2.5
      vertex 88 59 0
    endloop
  endfacet
  facet normal 1 0 0
    outer loop
      vertex 88 25 2.5
      vertex 88 25 5
      vertex 88 20 5
    endloop
  endfacet
  facet normal 1 0 0
    outer loop
      vertex 7.5 51 2.75
      vertex 7.5 13 2.5
      vertex 7.5 45 2.5
    endloop
  endfacet
  facet normal 1 0 0
    outer loop
      vertex 7.5 13 0
      vertex 7.5 13 2.5
      vertex 7.5 7.5 2.75
    endloop
  endfacet
  facet normal 1 0 0
    outer loop
      vertex 7.5 45 0
      vertex 7.5 51 0
      vertex 7.5 45 2.5
    endloop
  endfacet
  facet normal 1 0 0
    outer loop
      vertex 7.5 51 0
      vertex 7.5 51 2.75
      vertex 7.5 45 2.5
    endloop
  endfacet
  facet normal 1 0 0
    outer loop
      vertex 7.5 51 2.75
      vertex 7.5 7.5 2.75
      vertex 7.5 13 2.5
    endloop
  endfacet
  facet normal 1 0 0
    outer loop
      vertex 7.5 7.5 2.75
      vertex 7.5 7.5 0
      vertex 7.5 13 0
    endloop
  endfacet
  facet normal 0 1 0
    outer loop
      vertex 7.5 51 2.75
      vertex 7.5 51 0
      vertex 2 51 2.75
    endloop
  endfacet
  facet normal 0 1 0
    outer loop
      vertex 2 51 2.75
      vertex 7.5 51 0
      vertex 2 51 0
    endloop
  endfacet
  facet normal 1 0 0
    outer loop
      vertex 2 57 0
      vertex 2 57 2.75
      vertex 2 51 2.75
    endloop
  endfacet
  facet normal 1 0 0
    outer loop
      vertex 2 51 0
      vertex 2 57 0
      vertex 2 51 2.75
    endloop
  endfacet
  facet normal 0 -1 0
    outer loop
      vertex 36 57 0
      vertex 36 57 2.75
      vertex 2 57 2.75
    endloop
  endfacet
  facet normal 0 -1 0
    outer loop
      vertex 2 57 0
      vertex 36 57 0
      vertex 2 57 2.75
    endloop
  endfacet
  facet normal -1 0 0
    outer loop
      vertex 36 57 2.75
      vertex 36 57 0
      vertex 36 51.5 2.75
    endloop
  endfacet
  facet normal -1 0 0
    outer loop
      vertex 36 51.5 2.75
      vertex 36 57 0
      vertex 36 51.5 0
    endloop
  endfacet
  facet normal 0 -1 0
    outer loop
      vertex 42 51.5 0
      vertex 42 51.5 2.75
      vertex 36 51.5 2.75
    endloop
  endfacet
  facet normal 0 -1 0
    outer loop
      vertex 36 51.5 0
      vertex 42 51.5 0
      vertex 36 51.5 2.75
    endloop
  endfacet
  facet normal 1 0 0
    outer loop
      vertex 42 55 0
      vertex 42 55 2.75
      vertex 42 51.5 2.75
    endloop
  endfacet
  facet normal 1 0 0
    outer loop
      vertex 42 51.5 0
      vertex 42 55 0
      vertex 42 51.5 2.75
    endloop
  endfacet
  facet normal 0 -1 0
    outer loop
      vertex 62 55 0
      vertex 62 55 2.75
      vertex 42 55 2.75
    endloop
  endfacet
  facet normal 0 -1 0
    outer loop
      vertex 42 55 0
      vertex 62 55 0
      vertex 42 55 2.75
    endloop
  endfacet
  facet normal -1 0 0
    outer loop
      vertex 62 55 2.75
      vertex 62 55 0
      vertex 62 51.5 2.75
    endloop
  endfacet
  facet normal -1 0 0
    outer loop
      vertex 62 51.5 2.75
      vertex 62 55 0
      vertex 62 51.5 0
    endloop
  endfacet
  facet normal 0 -1 0
    outer loop
      vertex 80.5 51.5 0
      vertex 80.5 51.5 2.75
      vertex 62 51.5 2.75
    endloop
  endfacet
  facet normal 0 -1 0
    outer loop
      vertex 62 51.5 0
      vertex 80.5 51.5 0
      vertex 62 51.5 2.75
    endloop
  endfacet
  facet normal -1 0 0
    outer loop
      vertex 80.5 51.5 2.75
      vertex 80.5 51.5 0
      vertex 80.5 43 2.75
    endloop
  endfacet
  facet normal -1 0 0
    outer loop
      vertex 80.5 43 2.75
      vertex 80.5 51.5 0
      vertex 80.5 43 0
    endloop
  endfacet
  facet normal 0 -1 0
    outer loop
      vertex 87 43 0
      vertex 87 43 2.75
      vertex 80.5 43 2.75
    endloop
  endfacet
  facet normal 0 -1 0
    outer loop
      vertex 80.5 43 0
      vertex 87 43 0
      vertex 80.5 43 2.75
    endloop
  endfacet
  facet normal -1 0 0
    outer loop
      vertex 87 23 0
      vertex 87 23 2.75
      vertex 87 43 0
    endloop
  endfacet
  facet normal -1 0 0
    outer loop
      vertex 87 25 2.5
      vertex 87 23 2.75
      vertex 87 25 2.75
    endloop
  endfacet
  facet normal -1 0 0
    outer loop
      vertex 87 43 0
      vertex 87 23 2.75
      vertex 87 25 2.5
    endloop
  endfacet
  facet normal -1 0 0
    outer loop
      vertex 87 43 0
      vertex 87 40 2.5
      vertex 87 40 2.75
    endloop
  endfacet
  facet normal -1 0 0
    outer loop
      vertex 87 43 0
      vertex 87 40 2.75
      vertex 87 43 2.75
    endloop
  endfacet
  facet normal -1 0 0
    outer loop
      vertex 87 40 2.5
      vertex 87 43 0
      vertex 87 25 2.5
    endloop
  endfacet
  facet normal 0 1 0
    outer loop
      vertex 87 23 2.75
      vertex 87 23 0
      vertex 80.5 23 2.75
    endloop
  endfacet
  facet normal 0 1 0
    outer loop
      vertex 80.5 23 2.75
      vertex 87 23 0
      vertex 80.5 23 0
    endloop
  endfacet
  facet normal -1 0 0
    outer loop
      vertex 80.5 23 2.75
      vertex 80.5 23 0
      vertex 80.5 13 2.75
    endloop
  endfacet
  facet normal -1 0 0
    outer loop
      vertex 80.5 13 2.75
      vertex 80.5 23 0
      vertex 80.5 13 0
    endloop
  endfacet
  facet normal 0 -1 0
    outer loop
      vertex 83 13 0
      vertex 83 13 2.75
      vertex 80.5 13 2.75
    endloop
  endfacet
  facet normal 0 -1 0
    outer loop
      vertex 80.5 13 0
      vertex 83 13 0
      vertex 80.5 13 2.75
    endloop
  endfacet
  facet normal -1 0 0
    outer loop
      vertex 83 13 2.75
      vertex 83 13 0
      vertex 83 3 2.75
    endloop
  endfacet
  facet normal -1 0 0
    outer loop
      vertex 83 3 2.75
      vertex 83 13 0
      vertex 83 3 0
    endloop
  endfacet
  facet normal 0 1 0
    outer loop
      vertex 83 3 2.75
      vertex 83 3 0
      vertex 63 3 2.75
    endloop
  endfacet
  facet normal 0 1 0
    outer loop
      vertex 63 3 2.75
      vertex 83 3 0
      vertex 63 3 0
    endloop
  endfacet
  facet normal 1 0 0
    outer loop
      vertex 63 7.5 0
      vertex 63 7.5 2.75
      vertex 63 3 2.75
    endloop
  endfacet
  facet normal 1 0 0
    outer loop
      vertex 63 3 0
      vertex 63 7.5 0
      vertex 63 3 2.75
    endloop
  endfacet
  facet normal 0 1 0
    outer loop
      vertex 63 7.5 2.75
      vertex 63 7.5 0
      vertex 20 7.5 2.75
    endloop
  endfacet
  facet normal 0 1 0
    outer loop
      vertex 20 7.5 2.75
      vertex 63 7.5 0
      vertex 20 7.5 0
    endloop
  endfacet
  facet normal -1 0 0
    outer loop
      vertex 20 7.5 2.75
      vertex 20 7.5 0
      vertex 20 4 2.75
    endloop
  endfacet
  facet normal -1 0 0
    outer loop
      vertex 20 4 2.75
      vertex 20 7.5 0
      vertex 20 4 0
    endloop
  endfacet
  facet normal 0 1 0
    outer loop
      vertex 20 4 2.75
      vertex 20 4 0
      vertex 14 4 2.75
    endloop
  endfacet
  facet normal 0 1 0
    outer loop
      vertex 14 4 2.75
      vertex 20 4 0
      vertex 14 4 0
    endloop
  endfacet
  facet normal 1 0 0
    outer loop
      vertex 14 7.5 0
      vertex 14 7.5 2.75
      vertex 14 4 2.75
    endloop
  endfacet
  facet normal 1 0 0
    outer loop
      vertex 14 4 0
      vertex 14 7.5 0
      vertex 14 4 2.75
    endloop
  endfacet
  facet normal 0 1 0
    outer loop
      vertex 14 7.5 2.75
      vertex 14 7.5 0
      vertex 7.5 7.5 2.75
    endloop
  endfacet
  facet normal 0 1 0
    outer loop
      vertex 7.5 7.5 2.75
      vertex 14 7.5 0
      vertex 7.5 7.5 0
    endloop
  endfacet
  facet normal 0 -1 0
    outer loop
      vertex 88 40 2.5
      vertex 88 40 5
      vertex 87.25 40 5
    endloop
  endfacet
  facet normal 0 -1 0
    outer loop
      vertex 87 40 2.75
      vertex 88 40 2.5
      vertex 87.25 40 2.75
    endloop
  endfacet
  facet normal 0 -1 0
    outer loop
      vertex 87.25 40 2.75
      vertex 88 40 2.5
      vertex 87.25 40 5
    endloop
  endfacet
  facet normal 0 -1 0
    outer loop
      vertex 87 40 2.5
      vertex 88 40 2.5
      vertex 87 40 2.75
    endloop
  endfacet
  facet normal -1 0 0
    outer loop
      vertex 87.25 58.25 5
      vertex 87.25 58.25 2.75
      vertex 87.25 40 5
    endloop
  endfacet
  facet normal -1 0 0
    outer loop
      vertex 87.25 40 5
      vertex 87.25 58.25 2.75
      vertex 87.25 40 2.75
    endloop
  endfacet
  facet normal 0 -1 0
    outer loop
      vertex 87.25 58.25 2.75
      vertex 87.25 58.25 5
      vertex 0.75 58.25 5
    endloop
  endfacet
  facet normal 0 -1 0
    outer loop
      vertex 0.75 58.25 2.75
      vertex 87.25 58.25 2.75
      vertex 0.75 58.25 5
    endloop
  endfacet
  facet normal 1 0 0
    outer loop
      vertex 0.75 58.25 2.75
      vertex 0.75 58.25 5
      vertex 0.75 14 5
    endloop
  endfacet
  facet normal 1 0 0
    outer loop
      vertex 0.75 4 4
      vertex 0.75 58.25 2.75
      vertex 0.75 14 4
    endloop
  endfacet
  facet normal 1 0 0
    outer loop
      vertex 0.75 14 4
      vertex 0.75 58.25 2.75
      vertex 0.75 14 5
    endloop
  endfacet
  facet normal 1 0 0
    outer loop
      vertex 0.75 0.75 2.75
      vertex 0.75 58.25 2.75
      vertex 0.75 4 4
    endloop
  endfacet
  facet normal 1 0 0
    outer loop
      vertex 0.75 0.75 5
      vertex 0.75 4 4
      vertex 0.75 4 5
    endloop
  endfacet
  facet normal 1 0 0
    outer loop
      vertex 0.75 0.75 2.75
      vertex 0.75 4 4
      vertex 0.75 0.75 5
    endloop
  endfacet
  facet normal 0 1 0
    outer loop
      vertex 38 0.75 5
      vertex 38 0.75 4
      vertex 0.75 0.75 5
    endloop
  endfacet
  facet normal 0 1 0
    outer loop
      vertex 0.75 0.75 2.75
      vertex 38 0.75 4
      vertex 87.25 0.75 2.75
    endloop
  endfacet
  facet normal 0 1 0
    outer loop
      vertex 87.25 0.75 5
      vertex 53 0.75 4
      vertex 53 0.75 5
    endloop
  endfacet
  facet normal 0 1 0
    outer loop
      vertex 87.25 0.75 2.75
      vertex 53 0.75 4
      vertex 87.25 0.75 5
    endloop
  endfacet
  facet normal 0 1 0
    outer loop
      vertex 38 0.75 4
      vertex 53 0.75 4
      vertex 87.25 0.75 2.75
    endloop
  endfacet
  facet normal 0 1 0
    outer loop
      vertex 0.75 0.75 5
      vertex 38 0.75 4
      vertex 0.75 0.75 2.75
    endloop
  endfacet
  facet normal -1 0 0
    outer loop
      vertex 87.25 3 5
      vertex 87.25 3 2.75
      vertex 87.25 0.75 5
    endloop
  endfacet
  facet normal -1 0 0
    outer loop
      vertex 87.25 0.75 5
      vertex 87.25 3 2.75
      vertex 87.25 0.75 2.75
    endloop
  endfacet
  facet normal 0 1 0
    outer loop
      vertex 87.25 3 2.75
      vertex 87.25 3 5
      vertex 88 3 5
    endloop
  endfacet
  facet normal 0 1 0
    outer loop
      vertex 87.25 3 2.75
      vertex 88 3 5
      vertex 88 3 2.5
    endloop
  endfacet
  facet normal 0 1 0
    outer loop
      vertex 87.25 3 2.75
      vertex 88 3 2.5
      vertex 87 3 2.75
    endloop
  endfacet
  facet normal 0 1 0
    outer loop
      vertex 88 3 2.5
      vertex 87 3 2.5
      vertex 87 3 2.75
    endloop
  endfacet
  facet normal 0 0 1
    outer loop
      vertex 88 3 2.5
      vertex 88 20 2.5
      vertex 87 20 2.5
    endloop
  endfacet
  facet normal 0 0 1
    outer loop
      vertex 87 3 2.5
      vertex 88 3 2.5
      vertex 87 20 2.5
    endloop
  endfacet
  facet normal 0 -1 0
    outer loop
      vertex 88 20 2.5
      vertex 88 20 5
      vertex 87.25 20 5
    endloop
  endfacet
  facet normal 0 -1 0
    outer loop
      vertex 87 20 2.75
      vertex 88 20 2.5
      vertex 87.25 20 2.75
    endloop
  endfacet
  facet normal 0 -1 0
    outer loop
      vertex 87.25 20 2.75
      vertex 88 20 2.5
      vertex 87.25 20 5
    endloop
  endfacet
  facet normal 0 -1 0
    outer loop
      vertex 87 20 2.5
      vertex 88 20 2.5
      vertex 87 20 2.75
    endloop
  endfacet
  facet normal 0 0 1
    outer loop
      vertex 87.25 25 5
      vertex 87.25 20 5
      vertex 88 20 5
    endloop
  endfacet
  facet normal 0 0 1
    outer loop
      vertex 88 25 5
      vertex 87.25 25 5
      vertex 88 20 5
    endloop
  endfacet
  facet normal 0 1 0
    outer loop
      vertex 87.25 25 2.75
      vertex 87.25 25 5
      vertex 88 25 5
    endloop
  endfacet
  facet normal 0 1 0
    outer loop
      vertex 87.25 25 2.75
      vertex 88 25 5
      vertex 88 25 2.5
    endloop
  endfacet
  facet normal 0 1 0
    outer loop
      vertex 87.25 25 2.75
      vertex 88 25 2.5
      vertex 87 25 2.75
    endloop
  endfacet
  facet normal 0 1 0
    outer loop
      vertex 88 25 2.5
      vertex 87 25 2.5
      vertex 87 25 2.75
    endloop
  endfacet
  facet normal 0 0 1
    outer loop
      vertex 88 25 2.5
      vertex 88 40 2.5
      vertex 87 40 2.5
    endloop
  endfacet
  facet normal 0 0 1
    outer loop
      vertex 87 25 2.5
      vertex 88 25 2.5
      vertex 87 40 2.5
    endloop
  endfacet
  facet normal 0 0 1
    outer loop
      vertex 87 20 2.75
      vertex 80.5 23 2.75
      vertex 87 3 2.75
    endloop
  endfacet
  facet normal 0 0 1
    outer loop
      vertex 87.25 0.75 2.75
      vertex 87.25 3 2.75
      vertex 87 3 2.75
    endloop
  endfacet
  facet normal 0 0 1
    outer loop
      vertex 87 23 2.75
      vertex 80.5 23 2.75
      vertex 87 20 2.75
    endloop
  endfacet
  facet normal 0 0 1
    outer loop
      vertex 80.5 23 2.75
      vertex 87.25 0.75 2.75
      vertex 87 3 2.75
    endloop
  endfacet
  facet normal 0 0 1
    outer loop
      vertex 87.25 20 2.75
      vertex 87.25 25 2.75
      vertex 87 20 2.75
    endloop
  endfacet
  facet normal 0 0 1
    outer loop
      vertex 36 57 2.75
      vertex 87.25 58.25 2.75
      vertex 2 57 2.75
    endloop
  endfacet
  facet normal 0 0 1
    outer loop
      vertex 87.25 25 2.75
      vertex 87 23 2.75
      vertex 87 20 2.75
    endloop
  endfacet
  facet normal 0 0 1
    outer loop
      vertex 87.25 25 2.75
      vertex 87 25 2.75
      vertex 87 23 2.75
    endloop
  endfacet
  facet normal 0 0 1
    outer loop
      vertex 83 13 2.75
      vertex 80.5 23 2.75
      vertex 80.5 13 2.75
    endloop
  endfacet
  facet normal 0 0 1
    outer loop
      vertex 42 51.5 2.75
      vertex 42 55 2.75
      vertex 36 57 2.75
    endloop
  endfacet
  facet normal 0 0 1
    outer loop
      vertex 87.25 0.75 2.75
      vertex 80.5 23 2.75
      vertex 83 13 2.75
    endloop
  endfacet
  facet normal 0 0 1
    outer loop
      vertex 87.25 0.75 2.75
      vertex 83 3 2.75
      vertex 63 3 2.75
    endloop
  endfacet
  facet normal 0 0 1
    outer loop
      vertex 87.25 0.75 2.75
      vertex 63 3 2.75
      vertex 20 4 2.75
    endloop
  endfacet
  facet normal 0 0 1
    outer loop
      vertex 63 3 2.75
      vertex 63 7.5 2.75
      vertex 20 7.5 2.75
    endloop
  endfacet
  facet normal 0 0 1
    outer loop
      vertex 87.25 0.75 2.75
      vertex 20 4 2.75
      vertex 14 4 2.75
    endloop
  endfacet
  facet normal 0 0 1
    outer loop
      vertex 63 3 2.75
      vertex 20 7.5 2.75
      vertex 20 4 2.75
    endloop
  endfacet
  facet normal 0 0 1
    outer loop
      vertex 87.25 0.75 2.75
      vertex 14 4 2.75
      vertex 0.75 0.75 2.75
    endloop
  endfacet
  facet normal 0 0 1
    outer loop
      vertex 14 4 2.75
      vertex 14 7.5 2.75
      vertex 7.5 7.5 2.75
    endloop
  endfacet
  facet normal 0 0 1
    outer loop
      vertex 14 4 2.75
      vertex 7.5 7.5 2.75
      vertex 0.75 0.75 2.75
    endloop
  endfacet
  facet normal 0 0 1
    outer loop
      vertex 7.5 7.5 2.75
      vertex 2 51 2.75
      vertex 0.75 58.25 2.75
    endloop
  endfacet
  facet normal 0 0 1
    outer loop
      vertex 7.5 7.5 2.75
      vertex 7.5 51 2.75
      vertex 2 51 2.75
    endloop
  endfacet
  facet normal 0 0 1
    outer loop
      vertex 2 51 2.75
      vertex 2 57 2.75
      vertex 0.75 58.25 2.75
    endloop
  endfacet
  facet normal 0 0 1
    outer loop
      vertex 42 55 2.75
      vertex 62 55 2.75
      vertex 36 57 2.75
    endloop
  endfacet
  facet normal 0 0 1
    outer loop
      vertex 42 51.5 2.75
      vertex 36 57 2.75
      vertex 36 51.5 2.75
    endloop
  endfacet
  facet normal 0 0 1
    outer loop
      vertex 62 55 2.75
      vertex 87.25 58.25 2.75
      vertex 36 57 2.75
    endloop
  endfacet
  facet normal 0 0 1
    outer loop
      vertex 80.5 51.5 2.75
      vertex 87.25 58.25 2.75
      vertex 62 55 2.75
    endloop
  endfacet
  facet normal 0 0 1
    outer loop
      vertex 80.5 43 2.75
      vertex 87 43 2.75
      vertex 80.5 51.5 2.75
    endloop
  endfacet
  facet normal 0 0 1
    outer loop
      vertex 87 43 2.75
      vertex 87.25 58.25 2.75
      vertex 80.5 51.5 2.75
    endloop
  endfacet
  facet normal 0 0 1
    outer loop
      vertex 87 40 2.75
      vertex 87.25 40 2.75
      vertex 87 43 2.75
    endloop
  endfacet
  facet normal 0 0 1
    outer loop
      vertex 87.25 40 2.75
      vertex 87.25 58.25 2.75
      vertex 87 43 2.75
    endloop
  endfacet
  facet normal 0 0 1
    outer loop
      vertex 87.25 58.25 2.75
      vertex 0.75 58.25 2.75
      vertex 2 57 2.75
    endloop
  endfacet
  facet normal 0 0 1
    outer loop
      vertex 0.75 58.25 2.75
      vertex 0.75 0.75 2.75
      vertex 7.5 7.5 2.75
    endloop
  endfacet
  facet normal 0 0 1
    outer loop
      vertex 83 13 2.75
      vertex 83 3 2.75
      vertex 87.25 0.75 2.75
    endloop
  endfacet
  facet normal 0 0 1
    outer loop
      vertex 62 51.5 2.75
      vertex 80.5 51.5 2.75
      vertex 62 55 2.75
    endloop
  endfacet
  facet normal 1 0 0
    outer loop
      vertex 87 20 2.5
      vertex 87 20 2.75
      vertex 87 3 2.75
    endloop
  endfacet
  facet normal 1 0 0
    outer loop
      vertex 87 3 2.5
      vertex 87 20 2.5
      vertex 87 3 2.75
    endloop
  endfacet
  facet normal -1 0 0
    outer loop
      vertex 87.25 25 5
      vertex 87.25 25 2.75
      vertex 87.25 20 5
    endloop
  endfacet
  facet normal -1 0 0
    outer loop
      vertex 87.25 20 5
      vertex 87.25 25 2.75
      vertex 87.25 20 2.75
    endloop
  endfacet
endsolid OpenSCAD_Model
