solid OpenSCAD_Model
  facet normal -1 0 0
    outer loop
      vertex 0 0 0
      vertex 0 0 5
      vertex 0 18 0
    endloop
  endfacet
  facet normal -1 0 0
    outer loop
      vertex 0 18 2
      vertex 0 0 5
      vertex 0 63 5
    endloop
  endfacet
  facet normal -1 0 0
    outer loop
      vertex 0 48 0
      vertex 0 63 5
      vertex 0 63 0
    endloop
  endfacet
  facet normal -1 0 0
    outer loop
      vertex 0 48 2
      vertex 0 63 5
      vertex 0 48 0
    endloop
  endfacet
  facet normal -1 0 0
    outer loop
      vertex 0 18 0
      vertex 0 0 5
      vertex 0 18 2
    endloop
  endfacet
  facet normal -1 0 0
    outer loop
      vertex 0 18 2
      vertex 0 63 5
      vertex 0 48 2
    endloop
  endfacet
  facet normal 0 -1 0
    outer loop
      vertex 0 0 5
      vertex 0 0 0
      vertex 92 0 0
    endloop
  endfacet
  facet normal 0 -1 0
    outer loop
      vertex 92 0 5
      vertex 0 0 5
      vertex 92 0 0
    endloop
  endfacet
  facet normal 0 0 -1
    outer loop
      vertex 0 0 0
      vertex 0 18 0
      vertex 10 10 0
    endloop
  endfacet
  facet normal 0 0 -1
    outer loop
      vertex 17 7 0
      vertex 10 10 0
      vertex 17 10 0
    endloop
  endfacet
  facet normal 0 0 -1
    outer loop
      vertex 0 0 0
      vertex 10 10 0
      vertex 17 7 0
    endloop
  endfacet
  facet normal 0 0 -1
    outer loop
      vertex 0 0 0
      vertex 17 7 0
      vertex 92 0 0
    endloop
  endfacet
  facet normal 0 0 -1
    outer loop
      vertex 22 10 0
      vertex 92 0 0
      vertex 22 7 0
    endloop
  endfacet
  facet normal 0 0 -1
    outer loop
      vertex 17 7 0
      vertex 22 7 0
      vertex 92 0 0
    endloop
  endfacet
  facet normal 0 0 -1
    outer loop
      vertex 76 10 0
      vertex 76 6 0
      vertex 22 10 0
    endloop
  endfacet
  facet normal 0 0 -1
    outer loop
      vertex 76 6 0
      vertex 92 0 0
      vertex 22 10 0
    endloop
  endfacet
  facet normal 0 0 -1
    outer loop
      vertex 80.5 10 0
      vertex 92 0 0
      vertex 80.5 6 0
    endloop
  endfacet
  facet normal 0 0 -1
    outer loop
      vertex 92 0 0
      vertex 76 6 0
      vertex 80.5 6 0
    endloop
  endfacet
  facet normal 0 0 -1
    outer loop
      vertex 53 52 0
      vertex 61 56 0
      vertex 61 52 0
    endloop
  endfacet
  facet normal 0 0 -1
    outer loop
      vertex 80.5 10 0
      vertex 81 10 0
      vertex 92 0 0
    endloop
  endfacet
  facet normal 0 0 -1
    outer loop
      vertex 88 25 0
      vertex 92 0 0
      vertex 83 25 0
    endloop
  endfacet
  facet normal 0 0 -1
    outer loop
      vertex 10 52 0
      vertex 49 55 0
      vertex 49 52 0
    endloop
  endfacet
  facet normal 0 0 -1
    outer loop
      vertex 81 52 0
      vertex 73 52 0
      vertex 73 56 0
    endloop
  endfacet
  facet normal 0 0 -1
    outer loop
      vertex 88 25 0
      vertex 92 63 0
      vertex 92 0 0
    endloop
  endfacet
  facet normal 0 0 -1
    outer loop
      vertex 61 56 0
      vertex 53 52 0
      vertex 53 55 0
    endloop
  endfacet
  facet normal 0 0 -1
    outer loop
      vertex 61 56 0
      vertex 0 63 0
      vertex 73 56 0
    endloop
  endfacet
  facet normal 0 0 -1
    outer loop
      vertex 53 55 0
      vertex 49 55 0
      vertex 61 56 0
    endloop
  endfacet
  facet normal 0 0 -1
    outer loop
      vertex 49 55 0
      vertex 10 52 0
      vertex 61 56 0
    endloop
  endfacet
  facet normal 0 0 -1
    outer loop
      vertex 0 48 0
      vertex 10 52 0
      vertex 10 48 0
    endloop
  endfacet
  facet normal 0 0 -1
    outer loop
      vertex 83 25 0
      vertex 81 52 0
      vertex 83 43 0
    endloop
  endfacet
  facet normal 0 0 -1
    outer loop
      vertex 10 52 0
      vertex 0 48 0
      vertex 0 63 0
    endloop
  endfacet
  facet normal 0 0 -1
    outer loop
      vertex 10 52 0
      vertex 0 63 0
      vertex 61 56 0
    endloop
  endfacet
  facet normal 0 0 -1
    outer loop
      vertex 73 56 0
      vertex 0 63 0
      vertex 92 63 0
    endloop
  endfacet
  facet normal 0 0 -1
    outer loop
      vertex 73 56 0
      vertex 92 63 0
      vertex 81 52 0
    endloop
  endfacet
  facet normal 0 0 -1
    outer loop
      vertex 81 52 0
      vertex 92 63 0
      vertex 83 43 0
    endloop
  endfacet
  facet normal 0 0 -1
    outer loop
      vertex 81 10 0
      vertex 81 52 0
      vertex 83 25 0
    endloop
  endfacet
  facet normal 0 0 -1
    outer loop
      vertex 81 10 0
      vertex 83 25 0
      vertex 92 0 0
    endloop
  endfacet
  facet normal 0 0 -1
    outer loop
      vertex 88 43 0
      vertex 92 63 0
      vertex 88 25 0
    endloop
  endfacet
  facet normal 0 0 -1
    outer loop
      vertex 83 43 0
      vertex 92 63 0
      vertex 88 43 0
    endloop
  endfacet
  facet normal 0 0 -1
    outer loop
      vertex 10 10 0
      vertex 0 18 0
      vertex 10 18 0
    endloop
  endfacet
  facet normal 0 1 0
    outer loop
      vertex 10 18 2
      vertex 10 18 0
      vertex 3 18 2
    endloop
  endfacet
  facet normal 0 1 0
    outer loop
      vertex 3 18 2
      vertex 10 18 0
      vertex 0 18 2
    endloop
  endfacet
  facet normal 0 1 0
    outer loop
      vertex 0 18 2
      vertex 10 18 0
      vertex 0 18 0
    endloop
  endfacet
  facet normal 0 0 -1
    outer loop
      vertex 3 48 2
      vertex 3 18 2
      vertex 0 48 2
    endloop
  endfacet
  facet normal 0 0 -1
    outer loop
      vertex 0 48 2
      vertex 3 18 2
      vertex 0 18 2
    endloop
  endfacet
  facet normal 0 -1 0
    outer loop
      vertex 10 48 0
      vertex 10 48 2
      vertex 3 48 2
    endloop
  endfacet
  facet normal 0 -1 0
    outer loop
      vertex 0 48 0
      vertex 10 48 0
      vertex 0 48 2
    endloop
  endfacet
  facet normal 0 -1 0
    outer loop
      vertex 0 48 2
      vertex 10 48 0
      vertex 3 48 2
    endloop
  endfacet
  facet normal 0 1 0
    outer loop
      vertex 0 63 0
      vertex 0 63 5
      vertex 92 63 0
    endloop
  endfacet
  facet normal 0 1 0
    outer loop
      vertex 92 63 0
      vertex 0 63 5
      vertex 92 63 5
    endloop
  endfacet
  facet normal 0 0 1
    outer loop
      vertex 3 3 5
      vertex 0 0 5
      vertex 92 0 5
    endloop
  endfacet
  facet normal 0 0 1
    outer loop
      vertex 0 63 5
      vertex 0 0 5
      vertex 3 3 5
    endloop
  endfacet
  facet normal 0 0 1
    outer loop
      vertex 0 63 5
      vertex 3 3 5
      vertex 3 60.5 5
    endloop
  endfacet
  facet normal 0 0 1
    outer loop
      vertex 92 63 5
      vertex 0 63 5
      vertex 89.5 60.5 5
    endloop
  endfacet
  facet normal 0 0 1
    outer loop
      vertex 89.5 21 5
      vertex 91 21 5
      vertex 89.5 27 5
    endloop
  endfacet
  facet normal 0 0 1
    outer loop
      vertex 91 27 5
      vertex 91 21 5
      vertex 92 0 5
    endloop
  endfacet
  facet normal 0 0 1
    outer loop
      vertex 92 63 5
      vertex 91 42 5
      vertex 92 0 5
    endloop
  endfacet
  facet normal 0 0 1
    outer loop
      vertex 92 63 5
      vertex 89.5 60.5 5
      vertex 91 42 5
    endloop
  endfacet
  facet normal 0 0 1
    outer loop
      vertex 91 42 5
      vertex 91 27 5
      vertex 92 0 5
    endloop
  endfacet
  facet normal 0 0 1
    outer loop
      vertex 91 21 5
      vertex 91 5 5
      vertex 92 0 5
    endloop
  endfacet
  facet normal 0 0 1
    outer loop
      vertex 91 27 5
      vertex 89.5 27 5
      vertex 91 21 5
    endloop
  endfacet
  facet normal 0 0 1
    outer loop
      vertex 89.5 42 5
      vertex 91 42 5
      vertex 89.5 60.5 5
    endloop
  endfacet
  facet normal 0 0 1
    outer loop
      vertex 91 5 5
      vertex 89.5 5 5
      vertex 92 0 5
    endloop
  endfacet
  facet normal 0 0 1
    outer loop
      vertex 89.5 5 5
      vertex 89.5 3 5
      vertex 92 0 5
    endloop
  endfacet
  facet normal 0 0 1
    outer loop
      vertex 89.5 3 5
      vertex 3 3 5
      vertex 92 0 5
    endloop
  endfacet
  facet normal 0 0 1
    outer loop
      vertex 3 60.5 5
      vertex 89.5 60.5 5
      vertex 0 63 5
    endloop
  endfacet
  facet normal 1 0 0
    outer loop
      vertex 92 0 5
      vertex 92 0 0
      vertex 92 63 0
    endloop
  endfacet
  facet normal 1 0 0
    outer loop
      vertex 92 63 5
      vertex 92 0 5
      vertex 92 63 0
    endloop
  endfacet
  facet normal 1 0 0
    outer loop
      vertex 10 52 0
      vertex 10 52 2
      vertex 10 48 2
    endloop
  endfacet
  facet normal 1 0 0
    outer loop
      vertex 10 48 0
      vertex 10 52 0
      vertex 10 48 2
    endloop
  endfacet
  facet normal 0 -1 0
    outer loop
      vertex 49 52 0
      vertex 49 52 2
      vertex 10 52 2
    endloop
  endfacet
  facet normal 0 -1 0
    outer loop
      vertex 10 52 0
      vertex 49 52 0
      vertex 10 52 2
    endloop
  endfacet
  facet normal 1 0 0
    outer loop
      vertex 49 55 0
      vertex 49 55 2
      vertex 49 52 2
    endloop
  endfacet
  facet normal 1 0 0
    outer loop
      vertex 49 52 0
      vertex 49 55 0
      vertex 49 52 2
    endloop
  endfacet
  facet normal 0 -1 0
    outer loop
      vertex 53 55 0
      vertex 53 55 2
      vertex 49 55 2
    endloop
  endfacet
  facet normal 0 -1 0
    outer loop
      vertex 49 55 0
      vertex 53 55 0
      vertex 49 55 2
    endloop
  endfacet
  facet normal -1 0 0
    outer loop
      vertex 53 55 2
      vertex 53 55 0
      vertex 53 52 2
    endloop
  endfacet
  facet normal -1 0 0
    outer loop
      vertex 53 52 2
      vertex 53 55 0
      vertex 53 52 0
    endloop
  endfacet
  facet normal 0 -1 0
    outer loop
      vertex 61 52 0
      vertex 61 52 2
      vertex 53 52 2
    endloop
  endfacet
  facet normal 0 -1 0
    outer loop
      vertex 53 52 0
      vertex 61 52 0
      vertex 53 52 2
    endloop
  endfacet
  facet normal 1 0 0
    outer loop
      vertex 61 56 0
      vertex 61 56 2
      vertex 61 52 2
    endloop
  endfacet
  facet normal 1 0 0
    outer loop
      vertex 61 52 0
      vertex 61 56 0
      vertex 61 52 2
    endloop
  endfacet
  facet normal 0 -1 0
    outer loop
      vertex 73 56 0
      vertex 73 56 2
      vertex 61 56 2
    endloop
  endfacet
  facet normal 0 -1 0
    outer loop
      vertex 61 56 0
      vertex 73 56 0
      vertex 61 56 2
    endloop
  endfacet
  facet normal -1 0 0
    outer loop
      vertex 73 56 2
      vertex 73 56 0
      vertex 73 52 2
    endloop
  endfacet
  facet normal -1 0 0
    outer loop
      vertex 73 52 2
      vertex 73 56 0
      vertex 73 52 0
    endloop
  endfacet
  facet normal 0 -1 0
    outer loop
      vertex 81 52 0
      vertex 81 52 2
      vertex 73 52 2
    endloop
  endfacet
  facet normal 0 -1 0
    outer loop
      vertex 73 52 0
      vertex 81 52 0
      vertex 73 52 2
    endloop
  endfacet
  facet normal -1 0 0
    outer loop
      vertex 81 52 2
      vertex 81 52 0
      vertex 81 10 2
    endloop
  endfacet
  facet normal -1 0 0
    outer loop
      vertex 81 10 2
      vertex 81 52 0
      vertex 81 10 0
    endloop
  endfacet
  facet normal 0 1 0
    outer loop
      vertex 81 10 2
      vertex 81 10 0
      vertex 80.5 10 2
    endloop
  endfacet
  facet normal 0 1 0
    outer loop
      vertex 80.5 10 2
      vertex 81 10 0
      vertex 80.5 10 0
    endloop
  endfacet
  facet normal -1 0 0
    outer loop
      vertex 80.5 10 2
      vertex 80.5 10 0
      vertex 80.5 6 2
    endloop
  endfacet
  facet normal -1 0 0
    outer loop
      vertex 80.5 6 2
      vertex 80.5 10 0
      vertex 80.5 6 0
    endloop
  endfacet
  facet normal 0 1 0
    outer loop
      vertex 80.5 6 2
      vertex 80.5 6 0
      vertex 76 6 2
    endloop
  endfacet
  facet normal 0 1 0
    outer loop
      vertex 76 6 2
      vertex 80.5 6 0
      vertex 76 6 0
    endloop
  endfacet
  facet normal 1 0 0
    outer loop
      vertex 76 10 0
      vertex 76 10 2
      vertex 76 6 2
    endloop
  endfacet
  facet normal 1 0 0
    outer loop
      vertex 76 6 0
      vertex 76 10 0
      vertex 76 6 2
    endloop
  endfacet
  facet normal 0 1 0
    outer loop
      vertex 76 10 2
      vertex 76 10 0
      vertex 22 10 2
    endloop
  endfacet
  facet normal 0 1 0
    outer loop
      vertex 22 10 2
      vertex 76 10 0
      vertex 22 10 0
    endloop
  endfacet
  facet normal -1 0 0
    outer loop
      vertex 22 10 2
      vertex 22 10 0
      vertex 22 7 2
    endloop
  endfacet
  facet normal -1 0 0
    outer loop
      vertex 22 7 2
      vertex 22 10 0
      vertex 22 7 0
    endloop
  endfacet
  facet normal 0 1 0
    outer loop
      vertex 22 7 2
      vertex 22 7 0
      vertex 17 7 2
    endloop
  endfacet
  facet normal 0 1 0
    outer loop
      vertex 17 7 2
      vertex 22 7 0
      vertex 17 7 0
    endloop
  endfacet
  facet normal 1 0 0
    outer loop
      vertex 17 10 0
      vertex 17 10 2
      vertex 17 7 2
    endloop
  endfacet
  facet normal 1 0 0
    outer loop
      vertex 17 7 0
      vertex 17 10 0
      vertex 17 7 2
    endloop
  endfacet
  facet normal 0 1 0
    outer loop
      vertex 17 10 2
      vertex 17 10 0
      vertex 10 10 2
    endloop
  endfacet
  facet normal 0 1 0
    outer loop
      vertex 10 10 2
      vertex 17 10 0
      vertex 10 10 0
    endloop
  endfacet
  facet normal 1 0 0
    outer loop
      vertex 10 18 0
      vertex 10 18 2
      vertex 10 10 2
    endloop
  endfacet
  facet normal 1 0 0
    outer loop
      vertex 10 10 0
      vertex 10 18 0
      vertex 10 10 2
    endloop
  endfacet
  facet normal 1 0 0
    outer loop
      vertex 83 43 0
      vertex 83 43 2
      vertex 83 25 2
    endloop
  endfacet
  facet normal 1 0 0
    outer loop
      vertex 83 25 0
      vertex 83 43 0
      vertex 83 25 2
    endloop
  endfacet
  facet normal 0 -1 0
    outer loop
      vertex 88 43 0
      vertex 88 43 2
      vertex 83 43 2
    endloop
  endfacet
  facet normal 0 -1 0
    outer loop
      vertex 83 43 0
      vertex 88 43 0
      vertex 83 43 2
    endloop
  endfacet
  facet normal -1 0 0
    outer loop
      vertex 88 43 2
      vertex 88 43 0
      vertex 88 25 2
    endloop
  endfacet
  facet normal -1 0 0
    outer loop
      vertex 88 25 2
      vertex 88 43 0
      vertex 88 25 0
    endloop
  endfacet
  facet normal 0 1 0
    outer loop
      vertex 88 25 2
      vertex 88 25 0
      vertex 83 25 2
    endloop
  endfacet
  facet normal 0 1 0
    outer loop
      vertex 83 25 2
      vertex 88 25 0
      vertex 83 25 0
    endloop
  endfacet
  facet normal 0 0 1
    outer loop
      vertex 22 7 2
      vertex 3 3 2
      vertex 89.5 3 2
    endloop
  endfacet
  facet normal 0 0 1
    outer loop
      vertex 17 7 2
      vertex 17 10 2
      vertex 3 3 2
    endloop
  endfacet
  facet normal 0 0 1
    outer loop
      vertex 76 10 2
      vertex 22 10 2
      vertex 76 6 2
    endloop
  endfacet
  facet normal 0 0 1
    outer loop
      vertex 80.5 10 2
      vertex 89.5 5 2
      vertex 91 5 2
    endloop
  endfacet
  facet normal 0 0 1
    outer loop
      vertex 80.5 10 2
      vertex 80.5 6 2
      vertex 89.5 5 2
    endloop
  endfacet
  facet normal 0 0 1
    outer loop
      vertex 10 10 2
      vertex 10 18 2
      vertex 3 18 2
    endloop
  endfacet
  facet normal 0 0 1
    outer loop
      vertex 91 42 2
      vertex 89.5 27 2
      vertex 91 27 2
    endloop
  endfacet
  facet normal 0 0 1
    outer loop
      vertex 61 52 2
      vertex 61 56 2
      vertex 53 52 2
    endloop
  endfacet
  facet normal 0 0 1
    outer loop
      vertex 49 52 2
      vertex 49 55 2
      vertex 37 53 2
    endloop
  endfacet
  facet normal 0 0 1
    outer loop
      vertex 88 43 2
      vertex 88 25 2
      vertex 89.5 27 2
    endloop
  endfacet
  facet normal 0 0 1
    outer loop
      vertex 4 53 2
      vertex 3 48 2
      vertex 10 52 2
    endloop
  endfacet
  facet normal 0 0 1
    outer loop
      vertex 53 55 2
      vertex 53 52 2
      vertex 61 56 2
    endloop
  endfacet
  facet normal 0 0 1
    outer loop
      vertex 10 52 2
      vertex 49 52 2
      vertex 37 53 2
    endloop
  endfacet
  facet normal 0 0 1
    outer loop
      vertex 61 56 2
      vertex 73 56 2
      vertex 89.5 60.5 2
    endloop
  endfacet
  facet normal 0 0 1
    outer loop
      vertex 49 55 2
      vertex 53 55 2
      vertex 89.5 60.5 2
    endloop
  endfacet
  facet normal 0 0 1
    outer loop
      vertex 73 56 2
      vertex 73 52 2
      vertex 89.5 60.5 2
    endloop
  endfacet
  facet normal 0 0 1
    outer loop
      vertex 89.5 60.5 2
      vertex 81 52 2
      vertex 89.5 42 2
    endloop
  endfacet
  facet normal 0 0 1
    outer loop
      vertex 89.5 60.5 2
      vertex 73 52 2
      vertex 81 52 2
    endloop
  endfacet
  facet normal 0 0 1
    outer loop
      vertex 91 21 2
      vertex 81 10 2
      vertex 91 5 2
    endloop
  endfacet
  facet normal 0 0 1
    outer loop
      vertex 4 57.5 2
      vertex 37 57.5 2
      vertex 3 60.5 2
    endloop
  endfacet
  facet normal 0 0 1
    outer loop
      vertex 81 10 2
      vertex 80.5 10 2
      vertex 91 5 2
    endloop
  endfacet
  facet normal 0 0 1
    outer loop
      vertex 89.5 5 2
      vertex 80.5 6 2
      vertex 89.5 3 2
    endloop
  endfacet
  facet normal 0 0 1
    outer loop
      vertex 80.5 6 2
      vertex 76 6 2
      vertex 89.5 3 2
    endloop
  endfacet
  facet normal 0 0 1
    outer loop
      vertex 76 6 2
      vertex 22 10 2
      vertex 89.5 3 2
    endloop
  endfacet
  facet normal 0 0 1
    outer loop
      vertex 88 43 2
      vertex 89.5 27 2
      vertex 89.5 42 2
    endloop
  endfacet
  facet normal 0 0 1
    outer loop
      vertex 22 10 2
      vertex 22 7 2
      vertex 89.5 3 2
    endloop
  endfacet
  facet normal 0 0 1
    outer loop
      vertex 17 7 2
      vertex 3 3 2
      vertex 22 7 2
    endloop
  endfacet
  facet normal 0 0 1
    outer loop
      vertex 10 10 2
      vertex 3 3 2
      vertex 17 10 2
    endloop
  endfacet
  facet normal 0 0 1
    outer loop
      vertex 37 53 2
      vertex 4 53 2
      vertex 10 52 2
    endloop
  endfacet
  facet normal 0 0 1
    outer loop
      vertex 3 18 2
      vertex 3 3 2
      vertex 10 10 2
    endloop
  endfacet
  facet normal 0 0 1
    outer loop
      vertex 3 60.5 2
      vertex 3 48 2
      vertex 4 53 2
    endloop
  endfacet
  facet normal 0 0 1
    outer loop
      vertex 37 57.5 2
      vertex 49 55 2
      vertex 89.5 60.5 2
    endloop
  endfacet
  facet normal 0 0 1
    outer loop
      vertex 3 60.5 2
      vertex 4 53 2
      vertex 4 57.5 2
    endloop
  endfacet
  facet normal 0 0 1
    outer loop
      vertex 3 60.5 2
      vertex 37 57.5 2
      vertex 89.5 60.5 2
    endloop
  endfacet
  facet normal 0 0 1
    outer loop
      vertex 37 57.5 2
      vertex 37 53 2
      vertex 49 55 2
    endloop
  endfacet
  facet normal 0 0 1
    outer loop
      vertex 53 55 2
      vertex 61 56 2
      vertex 89.5 60.5 2
    endloop
  endfacet
  facet normal 0 0 1
    outer loop
      vertex 88 25 2
      vertex 83 25 2
      vertex 89.5 21 2
    endloop
  endfacet
  facet normal 0 0 1
    outer loop
      vertex 81 52 2
      vertex 88 43 2
      vertex 89.5 42 2
    endloop
  endfacet
  facet normal 0 0 1
    outer loop
      vertex 89.5 27 2
      vertex 88 25 2
      vertex 89.5 21 2
    endloop
  endfacet
  facet normal 0 0 1
    outer loop
      vertex 81 52 2
      vertex 83 43 2
      vertex 88 43 2
    endloop
  endfacet
  facet normal 0 0 1
    outer loop
      vertex 10 48 2
      vertex 10 52 2
      vertex 3 48 2
    endloop
  endfacet
  facet normal 0 0 1
    outer loop
      vertex 89.5 42 2
      vertex 89.5 27 2
      vertex 91 42 2
    endloop
  endfacet
  facet normal 0 0 1
    outer loop
      vertex 81 52 2
      vertex 83 25 2
      vertex 83 43 2
    endloop
  endfacet
  facet normal 0 0 1
    outer loop
      vertex 89.5 21 2
      vertex 81 10 2
      vertex 91 21 2
    endloop
  endfacet
  facet normal 0 0 1
    outer loop
      vertex 83 25 2
      vertex 81 10 2
      vertex 89.5 21 2
    endloop
  endfacet
  facet normal 0 0 1
    outer loop
      vertex 81 52 2
      vertex 81 10 2
      vertex 83 25 2
    endloop
  endfacet
  facet normal 1 0 0
    outer loop
      vertex 3 48 2
      vertex 3 60.5 2
      vertex 3 60.5 5
    endloop
  endfacet
  facet normal 1 0 0
    outer loop
      vertex 3 18 2
      vertex 3 48 2
      vertex 3 60.5 5
    endloop
  endfacet
  facet normal 1 0 0
    outer loop
      vertex 3 3 5
      vertex 3 18 2
      vertex 3 60.5 5
    endloop
  endfacet
  facet normal 1 0 0
    outer loop
      vertex 3 3 2
      vertex 3 18 2
      vertex 3 3 5
    endloop
  endfacet
  facet normal 0 1 0
    outer loop
      vertex 89.5 3 5
      vertex 89.5 3 2
      vertex 3 3 5
    endloop
  endfacet
  facet normal 0 1 0
    outer loop
      vertex 3 3 5
      vertex 89.5 3 2
      vertex 3 3 2
    endloop
  endfacet
  facet normal -1 0 0
    outer loop
      vertex 89.5 5 5
      vertex 89.5 5 2
      vertex 89.5 3 5
    endloop
  endfacet
  facet normal -1 0 0
    outer loop
      vertex 89.5 3 5
      vertex 89.5 5 2
      vertex 89.5 3 2
    endloop
  endfacet
  facet normal 0 1 0
    outer loop
      vertex 91 5 5
      vertex 91 5 2
      vertex 89.5 5 5
    endloop
  endfacet
  facet normal 0 1 0
    outer loop
      vertex 89.5 5 5
      vertex 91 5 2
      vertex 89.5 5 2
    endloop
  endfacet
  facet normal -1 0 0
    outer loop
      vertex 91 21 5
      vertex 91 21 2
      vertex 91 5 5
    endloop
  endfacet
  facet normal -1 0 0
    outer loop
      vertex 91 5 5
      vertex 91 21 2
      vertex 91 5 2
    endloop
  endfacet
  facet normal 0 -1 0
    outer loop
      vertex 91 21 2
      vertex 91 21 5
      vertex 89.5 21 5
    endloop
  endfacet
  facet normal 0 -1 0
    outer loop
      vertex 89.5 21 2
      vertex 91 21 2
      vertex 89.5 21 5
    endloop
  endfacet
  facet normal -1 0 0
    outer loop
      vertex 89.5 27 5
      vertex 89.5 27 2
      vertex 89.5 21 5
    endloop
  endfacet
  facet normal -1 0 0
    outer loop
      vertex 89.5 21 5
      vertex 89.5 27 2
      vertex 89.5 21 2
    endloop
  endfacet
  facet normal 0 1 0
    outer loop
      vertex 91 27 5
      vertex 91 27 2
      vertex 89.5 27 5
    endloop
  endfacet
  facet normal 0 1 0
    outer loop
      vertex 89.5 27 5
      vertex 91 27 2
      vertex 89.5 27 2
    endloop
  endfacet
  facet normal -1 0 0
    outer loop
      vertex 91 42 5
      vertex 91 42 2
      vertex 91 27 5
    endloop
  endfacet
  facet normal -1 0 0
    outer loop
      vertex 91 27 5
      vertex 91 42 2
      vertex 91 27 2
    endloop
  endfacet
  facet normal 0 -1 0
    outer loop
      vertex 91 42 2
      vertex 91 42 5
      vertex 89.5 42 5
    endloop
  endfacet
  facet normal 0 -1 0
    outer loop
      vertex 89.5 42 2
      vertex 91 42 2
      vertex 89.5 42 5
    endloop
  endfacet
  facet normal -1 0 0
    outer loop
      vertex 89.5 60.5 5
      vertex 89.5 60.5 2
      vertex 89.5 42 5
    endloop
  endfacet
  facet normal -1 0 0
    outer loop
      vertex 89.5 42 5
      vertex 89.5 60.5 2
      vertex 89.5 42 2
    endloop
  endfacet
  facet normal 0 -1 0
    outer loop
      vertex 89.5 60.5 2
      vertex 89.5 60.5 5
      vertex 3 60.5 5
    endloop
  endfacet
  facet normal 0 -1 0
    outer loop
      vertex 3 60.5 2
      vertex 89.5 60.5 2
      vertex 3 60.5 5
    endloop
  endfacet
  facet normal 1 0 0
    outer loop
      vertex 4 57.5 1
      vertex 4 57.5 2
      vertex 4 53 2
    endloop
  endfacet
  facet normal 1 0 0
    outer loop
      vertex 4 53 1
      vertex 4 57.5 1
      vertex 4 53 2
    endloop
  endfacet
  facet normal 0 1 0
    outer loop
      vertex 37 53 2
      vertex 37 53 1
      vertex 4 53 2
    endloop
  endfacet
  facet normal 0 1 0
    outer loop
      vertex 4 53 2
      vertex 37 53 1
      vertex 4 53 1
    endloop
  endfacet
  facet normal -1 0 0
    outer loop
      vertex 37 57.5 2
      vertex 37 57.5 1
      vertex 37 53 2
    endloop
  endfacet
  facet normal -1 0 0
    outer loop
      vertex 37 53 2
      vertex 37 57.5 1
      vertex 37 53 1
    endloop
  endfacet
  facet normal 0 -1 0
    outer loop
      vertex 37 57.5 1
      vertex 37 57.5 2
      vertex 4 57.5 2
    endloop
  endfacet
  facet normal 0 -1 0
    outer loop
      vertex 4 57.5 1
      vertex 37 57.5 1
      vertex 4 57.5 2
    endloop
  endfacet
  facet normal 0 0 1
    outer loop
      vertex 37 53 1
      vertex 37 57.5 1
      vertex 4 57.5 1
    endloop
  endfacet
  facet normal 0 0 1
    outer loop
      vertex 4 53 1
      vertex 37 53 1
      vertex 4 57.5 1
    endloop
  endfacet
endsolid OpenSCAD_Model
