solid OpenSCAD_Model
  facet normal -1 0 0
    outer loop
      vertex 0 0 0
      vertex 0 0 5
      vertex 0 17 0
    endloop
  endfacet
  facet normal -1 0 0
    outer loop
      vertex 0 17 2
      vertex 0 0 5
      vertex 0 63 5
    endloop
  endfacet
  facet normal -1 0 0
    outer loop
      vertex 0 49 0
      vertex 0 63 5
      vertex 0 63 0
    endloop
  endfacet
  facet normal -1 0 0
    outer loop
      vertex 0 49 2
      vertex 0 63 5
      vertex 0 49 0
    endloop
  endfacet
  facet normal -1 0 0
    outer loop
      vertex 0 17 0
      vertex 0 0 5
      vertex 0 17 2
    endloop
  endfacet
  facet normal -1 0 0
    outer loop
      vertex 0 17 2
      vertex 0 63 5
      vertex 0 49 2
    endloop
  endfacet
  facet normal 0 -1 0
    outer loop
      vertex 0 0 5
      vertex 0 0 0
      vertex 92 0 0
    endloop
  endfacet
  facet normal 0 -1 0
    outer loop
      vertex 92 0 5
      vertex 0 0 5
      vertex 92 0 0
    endloop
  endfacet
  facet normal 0 0 -1
    outer loop
      vertex 61 52 0
      vertex 54 52 0
      vertex 61 59 0
    endloop
  endfacet
  facet normal 0 0 -1
    outer loop
      vertex 0 0 0
      vertex 0 17 0
      vertex 10 10 0
    endloop
  endfacet
  facet normal 0 0 -1
    outer loop
      vertex 17 7 0
      vertex 10 10 0
      vertex 17 10 0
    endloop
  endfacet
  facet normal 0 0 -1
    outer loop
      vertex 0 0 0
      vertex 10 10 0
      vertex 17 7 0
    endloop
  endfacet
  facet normal 0 0 -1
    outer loop
      vertex 0 0 0
      vertex 17 7 0
      vertex 92 0 0
    endloop
  endfacet
  facet normal 0 0 -1
    outer loop
      vertex 22 10 0
      vertex 92 0 0
      vertex 22 7 0
    endloop
  endfacet
  facet normal 0 0 -1
    outer loop
      vertex 17 7 0
      vertex 22 7 0
      vertex 92 0 0
    endloop
  endfacet
  facet normal 0 0 -1
    outer loop
      vertex 69.5 10 0
      vertex 69.5 6 0
      vertex 22 10 0
    endloop
  endfacet
  facet normal 0 0 -1
    outer loop
      vertex 69.5 6 0
      vertex 92 0 0
      vertex 22 10 0
    endloop
  endfacet
  facet normal 0 0 -1
    outer loop
      vertex 81.5 6 0
      vertex 92 0 0
      vertex 69.5 6 0
    endloop
  endfacet
  facet normal 0 0 -1
    outer loop
      vertex 81 52 0
      vertex 81.5 11 0
      vertex 81 11 0
    endloop
  endfacet
  facet normal 0 0 -1
    outer loop
      vertex 54 57 0
      vertex 61 59 0
      vertex 54 52 0
    endloop
  endfacet
  facet normal 0 0 -1
    outer loop
      vertex 92 0 0
      vertex 81.5 6 0
      vertex 81.5 11 0
    endloop
  endfacet
  facet normal 0 0 -1
    outer loop
      vertex 88 25 0
      vertex 92 0 0
      vertex 83 25 0
    endloop
  endfacet
  facet normal 0 0 -1
    outer loop
      vertex 81 52 0
      vertex 73 52 0
      vertex 73 59 0
    endloop
  endfacet
  facet normal 0 0 -1
    outer loop
      vertex 88 25 0
      vertex 92 63 0
      vertex 92 0 0
    endloop
  endfacet
  facet normal 0 0 -1
    outer loop
      vertex 37 52 0
      vertex 49 57 0
      vertex 49 52 0
    endloop
  endfacet
  facet normal 0 0 -1
    outer loop
      vertex 61 59 0
      vertex 54 57 0
      vertex 49 57 0
    endloop
  endfacet
  facet normal 0 0 -1
    outer loop
      vertex 61 59 0
      vertex 0 63 0
      vertex 73 59 0
    endloop
  endfacet
  facet normal 0 0 -1
    outer loop
      vertex 0 49 0
      vertex 4 57 0
      vertex 4 49 0
    endloop
  endfacet
  facet normal 0 0 -1
    outer loop
      vertex 49 57 0
      vertex 37 52 0
      vertex 37 57 0
    endloop
  endfacet
  facet normal 0 0 -1
    outer loop
      vertex 49 57 0
      vertex 37 57 0
      vertex 61 59 0
    endloop
  endfacet
  facet normal 0 0 -1
    outer loop
      vertex 37 57 0
      vertex 4 57 0
      vertex 61 59 0
    endloop
  endfacet
  facet normal 0 0 -1
    outer loop
      vertex 83 25 0
      vertex 81 52 0
      vertex 83 44 0
    endloop
  endfacet
  facet normal 0 0 -1
    outer loop
      vertex 4 57 0
      vertex 0 49 0
      vertex 0 63 0
    endloop
  endfacet
  facet normal 0 0 -1
    outer loop
      vertex 4 57 0
      vertex 0 63 0
      vertex 61 59 0
    endloop
  endfacet
  facet normal 0 0 -1
    outer loop
      vertex 73 59 0
      vertex 0 63 0
      vertex 92 63 0
    endloop
  endfacet
  facet normal 0 0 -1
    outer loop
      vertex 73 59 0
      vertex 92 63 0
      vertex 81 52 0
    endloop
  endfacet
  facet normal 0 0 -1
    outer loop
      vertex 81 52 0
      vertex 92 63 0
      vertex 83 44 0
    endloop
  endfacet
  facet normal 0 0 -1
    outer loop
      vertex 81.5 11 0
      vertex 81 52 0
      vertex 83 25 0
    endloop
  endfacet
  facet normal 0 0 -1
    outer loop
      vertex 81.5 11 0
      vertex 83 25 0
      vertex 92 0 0
    endloop
  endfacet
  facet normal 0 0 -1
    outer loop
      vertex 88 44 0
      vertex 92 63 0
      vertex 88 25 0
    endloop
  endfacet
  facet normal 0 0 -1
    outer loop
      vertex 83 44 0
      vertex 92 63 0
      vertex 88 44 0
    endloop
  endfacet
  facet normal 0 0 -1
    outer loop
      vertex 10 10 0
      vertex 0 17 0
      vertex 10 17 0
    endloop
  endfacet
  facet normal 0 1 0
    outer loop
      vertex 10 17 2
      vertex 10 17 0
      vertex 3 17 2
    endloop
  endfacet
  facet normal 0 1 0
    outer loop
      vertex 3 17 2
      vertex 10 17 0
      vertex 0 17 2
    endloop
  endfacet
  facet normal 0 1 0
    outer loop
      vertex 0 17 2
      vertex 10 17 0
      vertex 0 17 0
    endloop
  endfacet
  facet normal 0 0 -1
    outer loop
      vertex 0 17 2
      vertex 0 49 2
      vertex 3 17 2
    endloop
  endfacet
  facet normal 0 0 -1
    outer loop
      vertex 3 17 2
      vertex 0 49 2
      vertex 3 49 2
    endloop
  endfacet
  facet normal 0 -1 0
    outer loop
      vertex 4 49 0
      vertex 4 49 2
      vertex 3 49 2
    endloop
  endfacet
  facet normal 0 -1 0
    outer loop
      vertex 0 49 0
      vertex 4 49 0
      vertex 0 49 2
    endloop
  endfacet
  facet normal 0 -1 0
    outer loop
      vertex 0 49 2
      vertex 4 49 0
      vertex 3 49 2
    endloop
  endfacet
  facet normal 0 1 0
    outer loop
      vertex 0 63 0
      vertex 0 63 5
      vertex 92 63 0
    endloop
  endfacet
  facet normal 0 1 0
    outer loop
      vertex 92 63 0
      vertex 0 63 5
      vertex 92 63 5
    endloop
  endfacet
  facet normal 0 0 1
    outer loop
      vertex 3 3 5
      vertex 0 0 5
      vertex 92 0 5
    endloop
  endfacet
  facet normal 0 0 1
    outer loop
      vertex 0 63 5
      vertex 0 0 5
      vertex 3 3 5
    endloop
  endfacet
  facet normal 0 0 1
    outer loop
      vertex 0 63 5
      vertex 3 3 5
      vertex 3 60.5 5
    endloop
  endfacet
  facet normal 0 0 1
    outer loop
      vertex 92 63 5
      vertex 0 63 5
      vertex 89.5 60.5 5
    endloop
  endfacet
  facet normal 0 0 1
    outer loop
      vertex 89.5 21 5
      vertex 91 21 5
      vertex 89.5 27 5
    endloop
  endfacet
  facet normal 0 0 1
    outer loop
      vertex 91 27 5
      vertex 91 21 5
      vertex 92 0 5
    endloop
  endfacet
  facet normal 0 0 1
    outer loop
      vertex 92 63 5
      vertex 91 42 5
      vertex 92 0 5
    endloop
  endfacet
  facet normal 0 0 1
    outer loop
      vertex 92 63 5
      vertex 89.5 60.5 5
      vertex 91 42 5
    endloop
  endfacet
  facet normal 0 0 1
    outer loop
      vertex 91 42 5
      vertex 91 27 5
      vertex 92 0 5
    endloop
  endfacet
  facet normal 0 0 1
    outer loop
      vertex 91 21 5
      vertex 91 5 5
      vertex 92 0 5
    endloop
  endfacet
  facet normal 0 0 1
    outer loop
      vertex 91 27 5
      vertex 89.5 27 5
      vertex 91 21 5
    endloop
  endfacet
  facet normal 0 0 1
    outer loop
      vertex 89.5 42 5
      vertex 91 42 5
      vertex 89.5 60.5 5
    endloop
  endfacet
  facet normal 0 0 1
    outer loop
      vertex 91 5 5
      vertex 89.5 5 5
      vertex 92 0 5
    endloop
  endfacet
  facet normal 0 0 1
    outer loop
      vertex 89.5 5 5
      vertex 89.5 3 5
      vertex 92 0 5
    endloop
  endfacet
  facet normal 0 0 1
    outer loop
      vertex 89.5 3 5
      vertex 3 3 5
      vertex 92 0 5
    endloop
  endfacet
  facet normal 0 0 1
    outer loop
      vertex 3 60.5 5
      vertex 89.5 60.5 5
      vertex 0 63 5
    endloop
  endfacet
  facet normal 1 0 0
    outer loop
      vertex 92 0 5
      vertex 92 0 0
      vertex 92 63 0
    endloop
  endfacet
  facet normal 1 0 0
    outer loop
      vertex 92 63 5
      vertex 92 0 5
      vertex 92 63 0
    endloop
  endfacet
  facet normal 1 0 0
    outer loop
      vertex 4 57 0
      vertex 4 57 2
      vertex 4 49 2
    endloop
  endfacet
  facet normal 1 0 0
    outer loop
      vertex 4 49 0
      vertex 4 57 0
      vertex 4 49 2
    endloop
  endfacet
  facet normal 0 -1 0
    outer loop
      vertex 37 57 0
      vertex 37 57 2
      vertex 4 57 2
    endloop
  endfacet
  facet normal 0 -1 0
    outer loop
      vertex 4 57 0
      vertex 37 57 0
      vertex 4 57 2
    endloop
  endfacet
  facet normal -1 0 0
    outer loop
      vertex 37 57 2
      vertex 37 57 0
      vertex 37 52 2
    endloop
  endfacet
  facet normal -1 0 0
    outer loop
      vertex 37 52 2
      vertex 37 57 0
      vertex 37 52 0
    endloop
  endfacet
  facet normal 0 -1 0
    outer loop
      vertex 49 52 0
      vertex 49 52 2
      vertex 37 52 2
    endloop
  endfacet
  facet normal 0 -1 0
    outer loop
      vertex 37 52 0
      vertex 49 52 0
      vertex 37 52 2
    endloop
  endfacet
  facet normal 1 0 0
    outer loop
      vertex 49 57 0
      vertex 49 57 2
      vertex 49 52 2
    endloop
  endfacet
  facet normal 1 0 0
    outer loop
      vertex 49 52 0
      vertex 49 57 0
      vertex 49 52 2
    endloop
  endfacet
  facet normal 0 -1 0
    outer loop
      vertex 54 57 0
      vertex 54 57 2
      vertex 49 57 2
    endloop
  endfacet
  facet normal 0 -1 0
    outer loop
      vertex 49 57 0
      vertex 54 57 0
      vertex 49 57 2
    endloop
  endfacet
  facet normal -1 0 0
    outer loop
      vertex 54 57 2
      vertex 54 57 0
      vertex 54 52 2
    endloop
  endfacet
  facet normal -1 0 0
    outer loop
      vertex 54 52 2
      vertex 54 57 0
      vertex 54 52 0
    endloop
  endfacet
  facet normal 0 -1 0
    outer loop
      vertex 61 52 0
      vertex 61 52 2
      vertex 54 52 2
    endloop
  endfacet
  facet normal 0 -1 0
    outer loop
      vertex 54 52 0
      vertex 61 52 0
      vertex 54 52 2
    endloop
  endfacet
  facet normal 1 0 0
    outer loop
      vertex 61 59 0
      vertex 61 59 2
      vertex 61 52 2
    endloop
  endfacet
  facet normal 1 0 0
    outer loop
      vertex 61 52 0
      vertex 61 59 0
      vertex 61 52 2
    endloop
  endfacet
  facet normal 0 -1 0
    outer loop
      vertex 73 59 0
      vertex 73 59 2
      vertex 61 59 2
    endloop
  endfacet
  facet normal 0 -1 0
    outer loop
      vertex 61 59 0
      vertex 73 59 0
      vertex 61 59 2
    endloop
  endfacet
  facet normal -1 0 0
    outer loop
      vertex 73 59 2
      vertex 73 59 0
      vertex 73 52 2
    endloop
  endfacet
  facet normal -1 0 0
    outer loop
      vertex 73 52 2
      vertex 73 59 0
      vertex 73 52 0
    endloop
  endfacet
  facet normal 0 -1 0
    outer loop
      vertex 81 52 0
      vertex 81 52 2
      vertex 73 52 2
    endloop
  endfacet
  facet normal 0 -1 0
    outer loop
      vertex 73 52 0
      vertex 81 52 0
      vertex 73 52 2
    endloop
  endfacet
  facet normal -1 0 0
    outer loop
      vertex 81 52 2
      vertex 81 52 0
      vertex 81 11 2
    endloop
  endfacet
  facet normal -1 0 0
    outer loop
      vertex 81 11 2
      vertex 81 52 0
      vertex 81 11 0
    endloop
  endfacet
  facet normal 0 -1 0
    outer loop
      vertex 81.5 11 0
      vertex 81.5 11 2
      vertex 81 11 2
    endloop
  endfacet
  facet normal 0 -1 0
    outer loop
      vertex 81 11 0
      vertex 81.5 11 0
      vertex 81 11 2
    endloop
  endfacet
  facet normal -1 0 0
    outer loop
      vertex 81.5 11 2
      vertex 81.5 11 0
      vertex 81.5 6 2
    endloop
  endfacet
  facet normal -1 0 0
    outer loop
      vertex 81.5 6 2
      vertex 81.5 11 0
      vertex 81.5 6 0
    endloop
  endfacet
  facet normal 0 1 0
    outer loop
      vertex 81.5 6 2
      vertex 81.5 6 0
      vertex 69.5 6 2
    endloop
  endfacet
  facet normal 0 1 0
    outer loop
      vertex 69.5 6 2
      vertex 81.5 6 0
      vertex 69.5 6 0
    endloop
  endfacet
  facet normal 1 0 0
    outer loop
      vertex 69.5 10 0
      vertex 69.5 10 2
      vertex 69.5 6 2
    endloop
  endfacet
  facet normal 1 0 0
    outer loop
      vertex 69.5 6 0
      vertex 69.5 10 0
      vertex 69.5 6 2
    endloop
  endfacet
  facet normal 0 1 0
    outer loop
      vertex 69.5 10 2
      vertex 69.5 10 0
      vertex 22 10 2
    endloop
  endfacet
  facet normal 0 1 0
    outer loop
      vertex 22 10 2
      vertex 69.5 10 0
      vertex 22 10 0
    endloop
  endfacet
  facet normal -1 0 0
    outer loop
      vertex 22 10 2
      vertex 22 10 0
      vertex 22 7 2
    endloop
  endfacet
  facet normal -1 0 0
    outer loop
      vertex 22 7 2
      vertex 22 10 0
      vertex 22 7 0
    endloop
  endfacet
  facet normal 0 1 0
    outer loop
      vertex 22 7 2
      vertex 22 7 0
      vertex 17 7 2
    endloop
  endfacet
  facet normal 0 1 0
    outer loop
      vertex 17 7 2
      vertex 22 7 0
      vertex 17 7 0
    endloop
  endfacet
  facet normal 1 0 0
    outer loop
      vertex 17 10 0
      vertex 17 10 2
      vertex 17 7 2
    endloop
  endfacet
  facet normal 1 0 0
    outer loop
      vertex 17 7 0
      vertex 17 10 0
      vertex 17 7 2
    endloop
  endfacet
  facet normal 0 1 0
    outer loop
      vertex 17 10 2
      vertex 17 10 0
      vertex 10 10 2
    endloop
  endfacet
  facet normal 0 1 0
    outer loop
      vertex 10 10 2
      vertex 17 10 0
      vertex 10 10 0
    endloop
  endfacet
  facet normal 1 0 0
    outer loop
      vertex 10 17 0
      vertex 10 17 2
      vertex 10 10 2
    endloop
  endfacet
  facet normal 1 0 0
    outer loop
      vertex 10 10 0
      vertex 10 17 0
      vertex 10 10 2
    endloop
  endfacet
  facet normal 1 0 0
    outer loop
      vertex 83 44 0
      vertex 83 44 2
      vertex 83 25 2
    endloop
  endfacet
  facet normal 1 0 0
    outer loop
      vertex 83 25 0
      vertex 83 44 0
      vertex 83 25 2
    endloop
  endfacet
  facet normal 0 -1 0
    outer loop
      vertex 88 44 0
      vertex 88 44 2
      vertex 83 44 2
    endloop
  endfacet
  facet normal 0 -1 0
    outer loop
      vertex 83 44 0
      vertex 88 44 0
      vertex 83 44 2
    endloop
  endfacet
  facet normal -1 0 0
    outer loop
      vertex 88 44 2
      vertex 88 44 0
      vertex 88 25 2
    endloop
  endfacet
  facet normal -1 0 0
    outer loop
      vertex 88 25 2
      vertex 88 44 0
      vertex 88 25 0
    endloop
  endfacet
  facet normal 0 1 0
    outer loop
      vertex 88 25 2
      vertex 88 25 0
      vertex 83 25 2
    endloop
  endfacet
  facet normal 0 1 0
    outer loop
      vertex 83 25 2
      vertex 88 25 0
      vertex 83 25 0
    endloop
  endfacet
  facet normal 0 0 1
    outer loop
      vertex 91 21 2
      vertex 89.5 5 2
      vertex 91 5 2
    endloop
  endfacet
  facet normal 0 0 1
    outer loop
      vertex 89.5 21 2
      vertex 89.5 5 2
      vertex 91 21 2
    endloop
  endfacet
  facet normal 0 0 1
    outer loop
      vertex 81.5 11 2
      vertex 89.5 5 2
      vertex 89.5 21 2
    endloop
  endfacet
  facet normal 0 0 1
    outer loop
      vertex 88 25 2
      vertex 89.5 21 2
      vertex 89.5 27 2
    endloop
  endfacet
  facet normal 0 0 1
    outer loop
      vertex 91 42 2
      vertex 89.5 27 2
      vertex 91 27 2
    endloop
  endfacet
  facet normal 0 0 1
    outer loop
      vertex 89.5 42 2
      vertex 89.5 27 2
      vertex 91 42 2
    endloop
  endfacet
  facet normal 0 0 1
    outer loop
      vertex 88 44 2
      vertex 89.5 42 2
      vertex 89.5 60.5 2
    endloop
  endfacet
  facet normal 0 0 1
    outer loop
      vertex 81 52 2
      vertex 83 25 2
      vertex 83 44 2
    endloop
  endfacet
  facet normal 0 0 1
    outer loop
      vertex 3 49 2
      vertex 4 49 2
      vertex 3 60.5 2
    endloop
  endfacet
  facet normal 0 0 1
    outer loop
      vertex 69.5 10 2
      vertex 22 10 2
      vertex 69.5 6 2
    endloop
  endfacet
  facet normal 0 0 1
    outer loop
      vertex 4 49 2
      vertex 4 57 2
      vertex 3 60.5 2
    endloop
  endfacet
  facet normal 0 0 1
    outer loop
      vertex 17 10 2
      vertex 10 10 2
      vertex 17 7 2
    endloop
  endfacet
  facet normal 0 0 1
    outer loop
      vertex 61 59 2
      vertex 73 59 2
      vertex 89.5 60.5 2
    endloop
  endfacet
  facet normal 0 0 1
    outer loop
      vertex 73 59 2
      vertex 73 52 2
      vertex 89.5 60.5 2
    endloop
  endfacet
  facet normal 0 0 1
    outer loop
      vertex 81.5 11 2
      vertex 81.5 6 2
      vertex 89.5 3 2
    endloop
  endfacet
  facet normal 0 0 1
    outer loop
      vertex 3 60.5 2
      vertex 61 59 2
      vertex 89.5 60.5 2
    endloop
  endfacet
  facet normal 0 0 1
    outer loop
      vertex 3 60.5 2
      vertex 37 57 2
      vertex 61 59 2
    endloop
  endfacet
  facet normal 0 0 1
    outer loop
      vertex 88 44 2
      vertex 89.5 27 2
      vertex 89.5 42 2
    endloop
  endfacet
  facet normal 0 0 1
    outer loop
      vertex 73 52 2
      vertex 81 52 2
      vertex 89.5 60.5 2
    endloop
  endfacet
  facet normal 0 0 1
    outer loop
      vertex 61 52 2
      vertex 61 59 2
      vertex 54 57 2
    endloop
  endfacet
  facet normal 0 0 1
    outer loop
      vertex 81 11 2
      vertex 81.5 11 2
      vertex 89.5 21 2
    endloop
  endfacet
  facet normal 0 0 1
    outer loop
      vertex 69.5 6 2
      vertex 89.5 3 2
      vertex 81.5 6 2
    endloop
  endfacet
  facet normal 0 0 1
    outer loop
      vertex 22 10 2
      vertex 89.5 3 2
      vertex 69.5 6 2
    endloop
  endfacet
  facet normal 0 0 1
    outer loop
      vertex 22 7 2
      vertex 89.5 3 2
      vertex 22 10 2
    endloop
  endfacet
  facet normal 0 0 1
    outer loop
      vertex 17 7 2
      vertex 89.5 3 2
      vertex 22 7 2
    endloop
  endfacet
  facet normal 0 0 1
    outer loop
      vertex 10 17 2
      vertex 3 17 2
      vertex 10 10 2
    endloop
  endfacet
  facet normal 0 0 1
    outer loop
      vertex 3 3 2
      vertex 89.5 3 2
      vertex 17 7 2
    endloop
  endfacet
  facet normal 0 0 1
    outer loop
      vertex 88 44 2
      vertex 88 25 2
      vertex 89.5 27 2
    endloop
  endfacet
  facet normal 0 0 1
    outer loop
      vertex 3 3 2
      vertex 17 7 2
      vertex 10 10 2
    endloop
  endfacet
  facet normal 0 0 1
    outer loop
      vertex 83 44 2
      vertex 88 44 2
      vertex 81 52 2
    endloop
  endfacet
  facet normal 0 0 1
    outer loop
      vertex 3 3 2
      vertex 10 10 2
      vertex 3 17 2
    endloop
  endfacet
  facet normal 0 0 1
    outer loop
      vertex 54 57 2
      vertex 54 52 2
      vertex 61 52 2
    endloop
  endfacet
  facet normal 0 0 1
    outer loop
      vertex 81 52 2
      vertex 88 44 2
      vertex 89.5 60.5 2
    endloop
  endfacet
  facet normal 0 0 1
    outer loop
      vertex 49 52 2
      vertex 49 57 2
      vertex 37 57 2
    endloop
  endfacet
  facet normal 0 0 1
    outer loop
      vertex 83 25 2
      vertex 89.5 21 2
      vertex 88 25 2
    endloop
  endfacet
  facet normal 0 0 1
    outer loop
      vertex 49 57 2
      vertex 61 59 2
      vertex 37 57 2
    endloop
  endfacet
  facet normal 0 0 1
    outer loop
      vertex 54 57 2
      vertex 61 59 2
      vertex 49 57 2
    endloop
  endfacet
  facet normal 0 0 1
    outer loop
      vertex 81.5 11 2
      vertex 89.5 3 2
      vertex 89.5 5 2
    endloop
  endfacet
  facet normal 0 0 1
    outer loop
      vertex 37 57 2
      vertex 37 52 2
      vertex 49 52 2
    endloop
  endfacet
  facet normal 0 0 1
    outer loop
      vertex 4 57 2
      vertex 37 57 2
      vertex 3 60.5 2
    endloop
  endfacet
  facet normal 0 0 1
    outer loop
      vertex 83 25 2
      vertex 81 11 2
      vertex 89.5 21 2
    endloop
  endfacet
  facet normal 0 0 1
    outer loop
      vertex 81 52 2
      vertex 81 11 2
      vertex 83 25 2
    endloop
  endfacet
  facet normal 1 0 0
    outer loop
      vertex 3 49 2
      vertex 3 60.5 2
      vertex 3 60.5 5
    endloop
  endfacet
  facet normal 1 0 0
    outer loop
      vertex 3 17 2
      vertex 3 49 2
      vertex 3 60.5 5
    endloop
  endfacet
  facet normal 1 0 0
    outer loop
      vertex 3 3 5
      vertex 3 17 2
      vertex 3 60.5 5
    endloop
  endfacet
  facet normal 1 0 0
    outer loop
      vertex 3 3 2
      vertex 3 17 2
      vertex 3 3 5
    endloop
  endfacet
  facet normal 0 1 0
    outer loop
      vertex 89.5 3 5
      vertex 89.5 3 2
      vertex 3 3 5
    endloop
  endfacet
  facet normal 0 1 0
    outer loop
      vertex 3 3 5
      vertex 89.5 3 2
      vertex 3 3 2
    endloop
  endfacet
  facet normal -1 0 0
    outer loop
      vertex 89.5 5 5
      vertex 89.5 5 2
      vertex 89.5 3 5
    endloop
  endfacet
  facet normal -1 0 0
    outer loop
      vertex 89.5 3 5
      vertex 89.5 5 2
      vertex 89.5 3 2
    endloop
  endfacet
  facet normal 0 1 0
    outer loop
      vertex 91 5 5
      vertex 91 5 2
      vertex 89.5 5 5
    endloop
  endfacet
  facet normal 0 1 0
    outer loop
      vertex 89.5 5 5
      vertex 91 5 2
      vertex 89.5 5 2
    endloop
  endfacet
  facet normal -1 0 0
    outer loop
      vertex 91 21 5
      vertex 91 21 2
      vertex 91 5 5
    endloop
  endfacet
  facet normal -1 0 0
    outer loop
      vertex 91 5 5
      vertex 91 21 2
      vertex 91 5 2
    endloop
  endfacet
  facet normal 0 -1 0
    outer loop
      vertex 91 21 2
      vertex 91 21 5
      vertex 89.5 21 5
    endloop
  endfacet
  facet normal 0 -1 0
    outer loop
      vertex 89.5 21 2
      vertex 91 21 2
      vertex 89.5 21 5
    endloop
  endfacet
  facet normal -1 0 0
    outer loop
      vertex 89.5 27 5
      vertex 89.5 27 2
      vertex 89.5 21 5
    endloop
  endfacet
  facet normal -1 0 0
    outer loop
      vertex 89.5 21 5
      vertex 89.5 27 2
      vertex 89.5 21 2
    endloop
  endfacet
  facet normal 0 1 0
    outer loop
      vertex 91 27 5
      vertex 91 27 2
      vertex 89.5 27 5
    endloop
  endfacet
  facet normal 0 1 0
    outer loop
      vertex 89.5 27 5
      vertex 91 27 2
      vertex 89.5 27 2
    endloop
  endfacet
  facet normal -1 0 0
    outer loop
      vertex 91 42 5
      vertex 91 42 2
      vertex 91 27 5
    endloop
  endfacet
  facet normal -1 0 0
    outer loop
      vertex 91 27 5
      vertex 91 42 2
      vertex 91 27 2
    endloop
  endfacet
  facet normal 0 -1 0
    outer loop
      vertex 91 42 2
      vertex 91 42 5
      vertex 89.5 42 5
    endloop
  endfacet
  facet normal 0 -1 0
    outer loop
      vertex 89.5 42 2
      vertex 91 42 2
      vertex 89.5 42 5
    endloop
  endfacet
  facet normal -1 0 0
    outer loop
      vertex 89.5 60.5 5
      vertex 89.5 60.5 2
      vertex 89.5 42 5
    endloop
  endfacet
  facet normal -1 0 0
    outer loop
      vertex 89.5 42 5
      vertex 89.5 60.5 2
      vertex 89.5 42 2
    endloop
  endfacet
  facet normal 0 -1 0
    outer loop
      vertex 89.5 60.5 2
      vertex 89.5 60.5 5
      vertex 3 60.5 5
    endloop
  endfacet
  facet normal 0 -1 0
    outer loop
      vertex 3 60.5 2
      vertex 89.5 60.5 2
      vertex 3 60.5 5
    endloop
  endfacet
endsolid OpenSCAD_Model
